<svg width="700" height="700" xmlns="http://www.w3.org/2000/svg">

 <g>
  <title>Layer 1</title>
  <g id="svg_3">
   <rect id="svg_1" height="539.16705" width="567.70644" y="68.5741" x="83.03511" stroke="#000" fill="#fff"/>
   <g>
    <g fill="#000000" transform="translate(0, 600) scale(0.1, -0.1)">
     <path d="m1196.60097,5946.68181c-528.15312,-81.97186 -960.91295,-453.73159 -1122.61621,-964.03531c-66.30997,-210.12506 -63.98331,-130.46226 -63.98331,-2482.2466c0,-1820.69902 2.32667,-2182.06794 16.28666,-2274.43061c81.4333,-532.23985 453.69982,-964.03531 972.54628,-1125.66997c211.72658,-65.8084 131.45661,-63.49933 2501.16566,-63.49933c1834.57593,0 2198.69911,2.30907 2291.76574,16.16347c536.29645,80.81733 971.38294,450.26799 1134.24954,965.18984c66.30997,210.12506 63.98331,130.46226 63.98331,2482.2466c0,1820.69902 -2.32667,2182.06794 -16.28666,2274.43061c-81.4333,532.23985 -453.69982,964.03531 -972.54628,1125.66997c-211.72658,65.8084 -129.12995,63.49933 -2512.79899,62.3448c-1765.93929,-1.15453 -2212.65911,-4.61813 -2291.76574,-16.16347zm3827.36513,-1147.6061c360.63319,-133.92586 366.44985,-136.23493 369.93985,-169.7164c3.49,-38.0996 -100.04663,-1067.94331 -108.18996,-1076.02504c-3.49,-3.4636 -43.04332,5.77267 -89.57663,18.47253c-601.44309,174.33453 -1315.72947,-155.862 -1603.07269,-741.21038c-83.75997,-168.56186 -108.18996,-270.16079 -108.18996,-439.87719c0,-114.2988 4.65333,-151.24386 25.59332,-213.58866c50.02331,-143.16213 126.80328,-235.52479 241.97324,-292.09693c288.50655,-143.16213 755.00303,-6.9272 1109.81955,323.26932c98.88329,93.5172 231.50324,238.98839 231.50324,256.30639c0,4.61813 -45.36998,30.01787 -101.20996,56.57213c-57.00331,25.39973 -173.3366,80.81733 -261.74989,121.226l-158.21327,75.04466l-46.53331,-64.65386c-112.84329,-160.48013 -300.13988,-323.26932 -471.14981,-413.32292c-81.4333,-42.71773 -230.33991,-96.9808 -265.23989,-96.9808c-19.77666,0 -91.9033,72.7356 -91.9033,92.36266c0,6.9272 32.57332,26.55427 73.28997,43.87227c222.19658,100.4444 431.59649,286.32426 595.62643,528.77625l65.14664,95.82626l112.84329,-51.954c61.65664,-28.86333 271.05656,-125.84413 465.33315,-214.74319c344.34653,-160.48013 351.32653,-165.09826 351.32653,-198.57973c0,-18.47253 -20.93999,-203.19786 -47.69665,-409.85932l-47.69665,-376.37786l-43.04332,-43.87227c-67.47331,-72.7356 -310.60987,-260.92453 -450.20982,-350.97812c-623.54642,-402.93212 -1308.74947,-538.01252 -1777.57262,-350.97812c-230.33991,91.20813 -402.51317,252.84279 -513.02979,477.97679c-267.56656,548.40332 -108.18996,1343.87676 399.02317,1992.72448c105.86329,136.23493 355.97986,387.92319 496.74313,501.06745c321.07987,257.46093 711.95971,457.19519 1130.75954,578.42118c167.51993,48.4904 381.57318,92.36266 567.70644,116.60786c76.77997,10.3908 152.39661,21.93613 168.68327,25.39973c22.10332,4.61813 -50.02331,34.636 -279.19989,120.07146c-350.16319,130.46226 -322.2432,126.99866 -587.4831,78.50826c-1121.45288,-205.50693 -1984.64587,-802.40065 -2417.40569,-1671.76422c-219.86991,-439.87719 -295.48655,-894.76331 -212.88991,-1276.91383c69.79997,-320.96026 261.74989,-580.73025 543.27645,-734.28318c53.51331,-28.86333 152.39661,-75.04466 218.70658,-103.908c66.30997,-27.7088 114.00662,-51.954 107.02662,-54.26307c-22.10332,-6.9272 -161.70327,21.93613 -250.11657,50.79947c-410.6565,138.544 -682.87639,483.74945 -752.67636,951.33544c-19.77666,137.38946 -8.14333,436.41359 24.42999,594.58465c51.18665,253.99733 165.19327,547.24879 303.62988,775.84638c460.67981,767.76465 1205.21285,1274.60477 2224.29244,1515.90223c136.10995,32.32693 431.59649,88.89906 473.47648,91.20813c9.30666,0 182.64326,-61.19027 383.89985,-136.23493zm364.12319,-3813.4235c-6.98,-151.24386 -13.95999,-182.41626 -45.36998,-182.41626c-9.30666,0 -243.13657,-54.26307 -520.00979,-121.226c-275.70989,-66.96293 -699.16305,-168.56186 -938.80962,-226.28853c-239.64657,-57.72667 -757.3297,-184.72533 -1150.5362,-282.86066c-392.04318,-98.13533 -717.77638,-177.79813 -723.59304,-177.79813c-11.63333,0 -12.79666,234.37026 -1.16333,310.56946l8.14333,50.79947l436.24982,101.59893c239.64657,56.57213 718.93971,167.40733 1064.44957,247.07013c345.50986,79.6628 900.41964,208.97053 1233.13284,287.47879c332.7132,79.6628 613.07642,144.31666 623.54642,144.31666c17.44999,1.15453 18.61333,-15.00893 13.95999,-151.24386z"/>
    </g>
   </g>
  </g>
 </g>
</svg>